<svg xmlns="http://www.w3.org/2000/svg" width="900" height="1100" viewBox="0 0 900 1100" fill="none">
  <rect width="900" height="1100" rx="72" fill="#F8F7F4"/>
  <path d="M154 780c106-249 313-471 590-567 64 283-7 520-212 688-112 92-276 84-378-121z" fill="#0F0F0F" opacity=".07"/>
  <rect x="348" y="210" width="204" height="104" rx="10" fill="url(#b)"/>
  <rect x="397" y="120" width="106" height="114" rx="18" fill="#101010"/>
  <path d="M281 355c0-69 56-125 125-125h88c69 0 125 56 125 125v395c0 93-76 169-169 169s-169-76-169-169V355z" fill="url(#c)"/>
  <path d="M333 373c0-54 44-98 98-98h38c54 0 98 44 98 98v347c0 65-52 117-117 117s-117-52-117-117V373z" fill="url(#d)"/>
  <rect x="347" y="492" width="206" height="175" rx="20" fill="#111"/>
  <rect x="381" y="530" width="138" height="16" rx="8" fill="#C9A96A"/>
  <rect x="404" y="575" width="92" height="10" rx="5" fill="#F8F7F4" opacity=".52"/>
  <path d="M345 334c42-52 107-69 168-42" stroke="#fff" stroke-opacity=".35" stroke-width="17" stroke-linecap="round"/>
  <ellipse cx="450" cy="946" rx="238" ry="43" fill="#111" opacity=".11"/>
  <defs>
    <linearGradient id="b" x1="348" x2="552" y1="210" y2="314" gradientUnits="userSpaceOnUse">
      <stop stop-color="#0F0F0F"/>
      <stop offset=".5" stop-color="#C9A96A"/>
      <stop offset="1" stop-color="#0F0F0F"/>
    </linearGradient>
    <linearGradient id="c" x1="281" x2="619" y1="230" y2="919" gradientUnits="userSpaceOnUse">
      <stop stop-color="#fff"/>
      <stop offset=".24" stop-color="#F2DEC1"/>
      <stop offset=".51" stop-color="#C9A96A"/>
      <stop offset=".75" stop-color="#7A5527"/>
      <stop offset="1" stop-color="#0F0F0F"/>
    </linearGradient>
    <linearGradient id="d" x1="333" x2="567" y1="275" y2="837" gradientUnits="userSpaceOnUse">
      <stop stop-color="#FFF7E5" stop-opacity=".7"/>
      <stop offset=".48" stop-color="#C9A96A" stop-opacity=".74"/>
      <stop offset="1" stop-color="#0F0F0F"/>
    </linearGradient>
  </defs>
</svg>
