<svg xmlns="http://www.w3.org/2000/svg" width="900" height="1100" viewBox="0 0 900 1100" fill="none">
  <rect width="900" height="1100" rx="72" fill="#FAFAF8"/>
  <circle cx="450" cy="512" r="326" fill="url(#a)"/>
  <rect x="354" y="209" width="192" height="96" fill="url(#b)"/>
  <rect x="389" y="128" width="122" height="101" rx="18" fill="#141414"/>
  <path d="M301 321c0-54 44-98 98-98h102c54 0 98 44 98 98v434c0 83-67 150-150 150s-150-67-150-150V321z" fill="url(#c)"/>
  <rect x="350" y="478" width="200" height="205" rx="24" fill="#FBF8F0" opacity=".92"/>
  <rect x="384" y="524" width="132" height="15" rx="7.5" fill="#C9A96A"/>
  <rect x="403" y="566" width="94" height="10" rx="5" fill="#111" opacity=".35"/>
  <path d="M342 315c29-49 82-72 146-64" stroke="#fff" stroke-opacity=".65" stroke-width="16" stroke-linecap="round"/>
  <path d="M387 282c35-20 84-16 119 4" stroke="#F8F7F4" stroke-opacity=".48" stroke-width="12" stroke-linecap="round"/>
  <ellipse cx="450" cy="932" rx="230" ry="44" fill="#111" opacity=".1"/>
  <defs>
    <radialGradient id="a" cx="0" cy="0" r="1" gradientUnits="userSpaceOnUse" gradientTransform="translate(450 512) rotate(90) scale(326)">
      <stop stop-color="#C9A96A" stop-opacity=".26"/>
      <stop offset=".65" stop-color="#B77A80" stop-opacity=".12"/>
      <stop offset="1" stop-color="#B77A80" stop-opacity="0"/>
    </radialGradient>
    <linearGradient id="b" x1="354" x2="546" y1="209" y2="305" gradientUnits="userSpaceOnUse">
      <stop stop-color="#111"/>
      <stop offset=".5" stop-color="#C9A96A"/>
      <stop offset="1" stop-color="#111"/>
    </linearGradient>
    <linearGradient id="c" x1="299" x2="599" y1="223" y2="905" gradientUnits="userSpaceOnUse">
      <stop stop-color="#fff"/>
      <stop offset=".24" stop-color="#F5DADD"/>
      <stop offset=".54" stop-color="#C9A96A"/>
      <stop offset="1" stop-color="#231512"/>
    </linearGradient>
  </defs>
</svg>
